<svg width="469" height="523" viewBox="0 0 469 523" fill="none" xmlns="http://www.w3.org/2000/svg">
<path d="M180.355 14.7786L-102.885 6.01139L-104.678 5.27808L-104.238 5.9625L-105.118 5.92992L-103.521 7.11951L46.3858 244.959L45.2125 246.98L46.8746 245.92L169.648 521.713L169.551 522.577L169.746 522.511L169.795 523.033L170.675 522.202L468.695 421.509L456.082 416.197L461.916 414.029L461.362 413.394L373.054 175.864L373.771 175.326L217.118 135.727L180.941 13.8008L180.355 14.7786ZM130.342 103.331L137.285 183.556L99.7876 155.82L130.342 103.331ZM98.712 155.038L-98.4363 9.23799L129.723 101.766L98.712 155.038ZM207.797 203.372L141.505 185.202L215.749 137.585L207.797 203.372ZM138.914 186.864L139.99 186.163L207.618 204.692L195.298 306.525L148.48 286.839L138.914 186.864ZM147.111 286.253L48.5694 244.812L137.659 187.662L147.111 286.253ZM195.151 307.894L195.054 308.774L195.217 308.643L170.398 515.439L148.643 288.339L195.151 307.894ZM196.569 308.48L196.7 308.529L196.667 308.92L197.857 309.018L253.214 332.305L171.506 517.28L196.569 308.48ZM202.11 309.393L261.166 314.314L253.752 331.099L202.11 309.393ZM198.166 307.731L197.058 307.258L297.36 232.362L261.72 313.027L198.166 307.731ZM137.447 185.316L137.464 185.479L137.529 186.196L126.415 193.333L49.1072 242.922L99.1194 156.993L137.447 185.316ZM147.258 287.752L169.273 517.623L48.4391 246.197L147.258 287.752ZM172.239 518.861L254.42 332.81L333.895 366.233L172.239 518.861ZM335.231 366.804L452.464 416.099L173.136 519.839L335.231 366.804ZM254.958 331.604L262.551 314.428L378.53 324.108L334.954 365.239L254.958 331.604ZM379.882 322.837L379.817 322.902L263.122 313.157L299.299 231.27L379.882 322.837ZM298.24 230.064L196.895 305.743L208.987 205.066L297.62 229.347L298.24 230.064ZM209.133 203.746L217.053 137.829L296.023 227.555L209.133 203.746ZM139.794 184.745L138.702 184.452L131.614 102.532L215.147 136.412L139.794 184.745ZM130.098 100.495L-99.3489 7.44544L179.605 16.0986L130.652 100.202L130.082 100.251L130.098 100.495ZM98.0439 156.179L47.1354 243.655L-100.604 9.28688L98.0439 156.179ZM464.947 421.346L212.132 506.769L454.241 416.848L464.947 421.346ZM336.274 365.81L380.746 323.831L459.618 413.443L454.273 415.431L336.274 365.81ZM458.885 410.607L300.162 230.26L371.914 176.679L458.885 410.607ZM300.114 228.663L298.337 228.174L218.471 137.438L370.724 175.929L300.114 228.663ZM215.554 135.14L131.646 101.115L180.534 17.1089L215.554 135.14Z" fill="url(#paint0_linear_1_925)"/>
<path d="M212.376 129.322C216.173 127.171 220.997 128.507 223.148 132.304C225.299 136.101 223.962 140.925 220.165 143.076C216.369 145.227 211.545 143.891 209.394 140.094C207.243 136.281 208.563 131.473 212.376 129.322Z" fill="url(#paint1_linear_1_925)"/>
<path d="M205.238 199.379C208.188 197.7 211.936 198.743 213.614 201.693C215.277 204.642 214.25 208.39 211.3 210.069C208.351 211.747 204.603 210.704 202.924 207.755C201.246 204.805 202.289 201.057 205.238 199.379Z" fill="url(#paint2_linear_1_925)"/>
<path d="M293.025 223.024C296.969 220.792 301.955 222.177 304.188 226.12C306.42 230.048 305.035 235.051 301.091 237.283C297.148 239.516 292.161 238.131 289.929 234.187C287.712 230.243 289.098 225.257 293.025 223.024Z" fill="url(#paint3_linear_1_925)"/>
<path d="M174.195 9.28689C179.034 6.54918 185.178 8.24395 187.932 13.1001C190.67 17.94 188.959 24.0999 184.119 26.8376C179.279 29.5753 173.119 27.8806 170.381 23.0244C167.644 18.1682 169.355 12.0246 174.195 9.28689Z" fill="url(#paint4_linear_1_925)"/>
<path d="M369.436 169.964C373.364 167.732 378.35 169.117 380.583 173.061C382.815 176.988 381.43 181.975 377.487 184.207C373.559 186.423 368.573 185.054 366.34 181.111C364.124 177.167 365.509 172.181 369.436 169.964Z" fill="url(#paint5_linear_1_925)"/>
<path d="M135.394 177.934C139.321 175.717 144.308 177.086 146.54 181.03C148.773 184.957 147.388 189.944 143.444 192.176C139.517 194.392 134.53 193.007 132.314 189.08C130.082 185.153 131.467 180.166 135.394 177.934Z" fill="url(#paint6_linear_1_925)"/>
<path d="M377.91 317.866C381.283 315.96 385.569 317.149 387.476 320.523C389.382 323.896 388.193 328.182 384.82 330.105C381.446 332.011 377.161 330.822 375.238 327.448C373.347 324.059 374.537 319.773 377.91 317.866Z" fill="url(#paint7_linear_1_925)"/>
<path d="M193.636 302.45C196.455 300.87 200.024 301.847 201.604 304.667C203.201 307.47 202.207 311.055 199.388 312.635C196.569 314.232 193 313.238 191.419 310.419C189.839 307.616 190.833 304.031 193.636 302.45Z" fill="url(#paint8_linear_1_925)"/>
<defs>
<linearGradient id="paint0_linear_1_925" x1="181.789" y1="5.27808" x2="181.789" y2="523.033" gradientUnits="userSpaceOnUse">
<stop stop-color="white"/>
<stop offset="1" stop-opacity="0"/>
</linearGradient>
<linearGradient id="paint1_linear_1_925" x1="216.269" y1="128.295" x2="216.269" y2="144.103" gradientUnits="userSpaceOnUse">
<stop stop-color="white"/>
<stop offset="1" stop-opacity="0"/>
</linearGradient>
<linearGradient id="paint2_linear_1_925" x1="208.266" y1="198.576" x2="208.266" y2="210.871" gradientUnits="userSpaceOnUse">
<stop stop-color="white"/>
<stop offset="1" stop-opacity="0"/>
</linearGradient>
<linearGradient id="paint3_linear_1_925" x1="297.064" y1="221.958" x2="297.064" y2="238.35" gradientUnits="userSpaceOnUse">
<stop stop-color="white"/>
<stop offset="1" stop-opacity="0"/>
</linearGradient>
<linearGradient id="paint4_linear_1_925" x1="179.157" y1="7.97852" x2="179.157" y2="28.146" gradientUnits="userSpaceOnUse">
<stop stop-color="white"/>
<stop offset="1" stop-opacity="0"/>
</linearGradient>
<linearGradient id="paint5_linear_1_925" x1="373.467" y1="168.898" x2="373.467" y2="185.267" gradientUnits="userSpaceOnUse">
<stop stop-color="white"/>
<stop offset="1" stop-opacity="0"/>
</linearGradient>
<linearGradient id="paint6_linear_1_925" x1="139.427" y1="176.874" x2="139.427" y2="193.232" gradientUnits="userSpaceOnUse">
<stop stop-color="white"/>
<stop offset="1" stop-opacity="0"/>
</linearGradient>
<linearGradient id="paint7_linear_1_925" x1="381.362" y1="316.957" x2="381.362" y2="331.014" gradientUnits="userSpaceOnUse">
<stop stop-color="white"/>
<stop offset="1" stop-opacity="0"/>
</linearGradient>
<linearGradient id="paint8_linear_1_925" x1="196.517" y1="301.695" x2="196.517" y2="313.398" gradientUnits="userSpaceOnUse">
<stop stop-color="white"/>
<stop offset="1" stop-opacity="0"/>
</linearGradient>
</defs>
</svg>
