<svg width="473" height="523" viewBox="0 0 473 523" fill="none" xmlns="http://www.w3.org/2000/svg">
<path d="M289.477 14.0366L573.131 5.2566L574.926 4.52222L574.485 5.20764L575.366 5.17501L573.767 6.36634L423.642 244.553L424.817 246.577L423.152 245.516L300.199 521.711L300.297 522.576L300.101 522.511L300.052 523.033L299.171 522.2L0.715823 421.361L13.3473 416.041L7.50484 413.87L8.0597 413.234L96.4963 175.357L95.7783 174.819L252.66 135.162L288.89 13.0574L289.477 14.0366ZM339.562 102.718L332.61 183.06L370.162 155.284L339.562 102.718ZM371.239 154.501L568.675 8.48791L340.183 101.151L371.239 154.501ZM261.995 202.905L328.383 184.708L254.031 137.022L261.995 202.905ZM330.978 186.373L329.901 185.671L262.174 204.227L274.512 306.209L321.399 286.495L330.978 186.373ZM322.769 285.907L421.455 244.406L332.235 187.173L322.769 285.907ZM274.659 307.58L274.757 308.461L274.594 308.33L299.449 515.428L321.235 287.996L274.659 307.58ZM273.239 308.167L273.109 308.216L273.141 308.608L271.95 308.706L216.512 332.027L298.339 517.272L273.239 308.167ZM267.69 309.081L208.548 314.01L215.973 330.819L267.69 309.081ZM271.64 307.416L272.75 306.943L172.302 231.938L207.993 312.72L271.64 307.416ZM332.447 184.823L332.431 184.986L332.366 185.704L343.496 192.852L420.916 242.513L370.831 156.459L332.447 184.823ZM322.623 287.408L300.575 517.615L421.585 245.793L322.623 287.408ZM297.604 518.855L215.304 332.533L135.713 366.004L297.604 518.855ZM134.374 366.575L16.9703 415.943L296.707 519.834L134.374 366.575ZM214.766 331.325L207.161 314.124L91.0129 323.818L134.652 365.009L214.766 331.325ZM89.6584 322.545L89.7237 322.61L206.589 312.851L170.36 230.844L89.6584 322.545ZM171.42 229.637L272.913 305.425L260.803 204.602L172.04 228.919L171.42 229.637ZM260.657 203.28L252.725 137.267L173.64 227.123L260.657 203.28ZM330.097 184.251L331.19 183.958L338.29 101.918L254.635 135.847L330.097 184.251ZM339.807 99.8784L569.589 6.69274L290.228 15.3585L339.252 99.5846L339.824 99.6336L339.807 99.8784ZM371.908 155.643L422.891 243.247L570.846 8.53687L371.908 155.643ZM4.46939 421.198L257.654 506.746L15.1915 416.693L4.46939 421.198ZM133.33 365.58L88.7934 323.54L9.80593 413.283L15.1588 415.274L133.33 365.58ZM10.5403 410.443L169.495 229.832L97.6387 176.173L10.5403 410.443ZM169.544 228.233L171.322 227.744L251.305 136.875L98.8301 175.422L169.544 228.233ZM254.227 134.574L338.257 100.499L289.298 16.3703L254.227 134.574Z" fill="url(#paint0_linear_1_952)"/>
<path d="M257.409 128.748C253.607 126.593 248.776 127.932 246.622 131.734C244.468 135.537 245.806 140.367 249.608 142.521C253.411 144.676 258.242 143.337 260.396 139.535C262.55 135.716 261.228 130.902 257.409 128.748Z" fill="url(#paint1_linear_1_952)"/>
<path d="M264.557 198.906C261.603 197.225 257.85 198.27 256.169 201.224C254.504 204.178 255.532 207.931 258.486 209.612C261.44 211.293 265.194 210.249 266.875 207.295C268.556 204.341 267.511 200.587 264.557 198.906Z" fill="url(#paint2_linear_1_952)"/>
<path d="M176.643 222.586C172.693 220.351 167.699 221.738 165.464 225.687C163.228 229.62 164.615 234.63 168.564 236.866C172.514 239.102 177.508 237.715 179.743 233.765C181.963 229.816 180.576 224.822 176.643 222.586Z" fill="url(#paint3_linear_1_952)"/>
<path d="M295.646 8.5371C290.8 5.79538 284.647 7.49263 281.889 12.3559C279.147 17.2029 280.861 23.3717 285.708 26.1134C290.555 28.8552 296.724 27.1579 299.465 22.2946C302.207 17.4314 300.493 11.2788 295.646 8.5371Z" fill="url(#paint4_linear_1_952)"/>
<path d="M100.12 169.449C96.1865 167.213 91.1926 168.601 88.9568 172.55C86.721 176.483 88.1082 181.477 92.0576 183.713C95.9906 185.932 100.984 184.561 103.22 180.612C105.44 176.662 104.053 171.669 100.12 169.449Z" fill="url(#paint5_linear_1_952)"/>
<path d="M334.504 177.43C330.571 175.21 325.577 176.581 323.341 180.53C321.105 184.464 322.492 189.457 326.442 191.693C330.375 193.913 335.369 192.525 337.588 188.592C339.824 184.659 338.437 179.666 334.504 177.43Z" fill="url(#paint6_linear_1_952)"/>
<path d="M91.6334 317.567C88.2553 315.658 83.9632 316.849 82.0538 320.227C80.1444 323.605 81.3357 327.897 84.7138 329.823C88.092 331.733 92.3841 330.541 94.3099 327.163C96.2029 323.769 95.0116 319.476 91.6334 317.567Z" fill="url(#paint7_linear_1_952)"/>
<path d="M276.177 302.129C273.354 300.546 269.78 301.525 268.197 304.348C266.597 307.155 267.593 310.745 270.416 312.328C273.239 313.928 276.813 312.932 278.396 310.109C279.979 307.302 278.984 303.712 276.177 302.129Z" fill="url(#paint8_linear_1_952)"/>
<defs>
<linearGradient id="paint0_linear_1_952" x1="288.041" y1="4.52222" x2="288.041" y2="523.033" gradientUnits="userSpaceOnUse">
<stop stop-color="white"/>
<stop offset="1" stop-opacity="0"/>
</linearGradient>
<linearGradient id="paint1_linear_1_952" x1="253.511" y1="127.719" x2="253.511" y2="143.55" gradientUnits="userSpaceOnUse">
<stop stop-color="white"/>
<stop offset="1" stop-opacity="0"/>
</linearGradient>
<linearGradient id="paint2_linear_1_952" x1="261.525" y1="198.103" x2="261.525" y2="210.415" gradientUnits="userSpaceOnUse">
<stop stop-color="white"/>
<stop offset="1" stop-opacity="0"/>
</linearGradient>
<linearGradient id="paint3_linear_1_952" x1="172.598" y1="221.518" x2="172.598" y2="237.934" gradientUnits="userSpaceOnUse">
<stop stop-color="white"/>
<stop offset="1" stop-opacity="0"/>
</linearGradient>
<linearGradient id="paint4_linear_1_952" x1="290.677" y1="7.22681" x2="290.677" y2="27.4237" gradientUnits="userSpaceOnUse">
<stop stop-color="white"/>
<stop offset="1" stop-opacity="0"/>
</linearGradient>
<linearGradient id="paint5_linear_1_952" x1="96.0832" y1="168.381" x2="96.0832" y2="184.774" gradientUnits="userSpaceOnUse">
<stop stop-color="white"/>
<stop offset="1" stop-opacity="0"/>
</linearGradient>
<linearGradient id="paint6_linear_1_952" x1="330.465" y1="176.369" x2="330.465" y2="192.751" gradientUnits="userSpaceOnUse">
<stop stop-color="white"/>
<stop offset="1" stop-opacity="0"/>
</linearGradient>
<linearGradient id="paint7_linear_1_952" x1="88.1762" y1="316.656" x2="88.1762" y2="330.734" gradientUnits="userSpaceOnUse">
<stop stop-color="white"/>
<stop offset="1" stop-opacity="0"/>
</linearGradient>
<linearGradient id="paint8_linear_1_952" x1="273.291" y1="301.372" x2="273.291" y2="313.092" gradientUnits="userSpaceOnUse">
<stop stop-color="white"/>
<stop offset="1" stop-opacity="0"/>
</linearGradient>
</defs>
</svg>
